<?xml version="1.0" encoding="UTF-8"?>
<svg width="228px" height="25px" viewBox="0 0 228 25" version="1.1" xmlns="http://www.w3.org/2000/svg" xmlns:xlink="http://www.w3.org/1999/xlink">
    <!-- Generator: Sketch 48.1 (47250) - http://www.bohemiancoding.com/sketch -->
    <title>gen_logoHeader</title>
    <desc>Created with Sketch.</desc>
    <defs>
        <polygon id="path-1" points="14.0350592 0 0 0 0 24.5958904 14.0350592 24.5958904 28.0701185 24.5958904 28.0701185 0"></polygon>
    </defs>
    <g id="BRAND-HEADER" stroke="none" stroke-width="1" fill="none" fill-rule="evenodd">
        <g id="gen_logoHeader">
            <g id="Page-1">
                <path d="M40.5264144,22.8390411 C36.7366952,22.8390411 35.0973596,20.0550205 35.0973596,16.657274 C35.0973596,13.4641027 36.8711918,10.678911 40.4190514,10.678911 C41.4401712,10.678911 43.9405582,10.9600068 43.9405582,11.7777226 C43.9405582,12.1103527 43.6442363,12.3652911 43.2950137,12.3652911 C41.8702089,11.9307637 41.4936575,11.8542432 41.0636199,11.8542432 C38.5107226,11.8542432 38.268863,14.9706986 38.268863,16.6824555 C38.268863,19.8756267 38.9942466,21.6387226 41.0101336,21.6387226 C41.6820308,21.6387226 42.9994726,21.3058973 43.7250514,21.0761404 C44.155089,21.1024932 44.3705959,21.3572363 44.3705959,21.6387226 C44.3705959,21.7665822 44.3171096,21.8934658 44.2360993,22.0217158 C43.3486952,22.4812295 41.7093596,22.8390411 40.5264144,22.8390411" id="Fill-1" fill="#3A3A3A"></path>
                <path d="M163.358506,22.8390411 C159.568787,22.8390411 157.929451,20.0550205 157.929451,16.657274 C157.929451,13.4641027 159.703283,10.678911 163.251143,10.678911 C164.272263,10.678911 166.77265,10.9600068 166.77265,11.7777226 C166.77265,12.1103527 166.476133,12.3652911 166.127105,12.3652911 C164.7023,11.9307637 164.325749,11.8542432 163.895711,11.8542432 C161.342619,11.8542432 161.100954,14.9706986 161.100954,16.6824555 C161.100954,19.8756267 161.826338,21.6387226 163.842225,21.6387226 C164.514122,21.6387226 165.831564,21.3058973 166.557143,21.0761404 C166.98718,21.1024932 167.202687,21.3572363 167.202687,21.6387226 C167.202687,21.7665822 167.14803,21.8934658 167.068191,22.0217158 C166.180591,22.4812295 164.541451,22.8390411 163.358506,22.8390411" id="Fill-3" fill="#3A3A3A"></path>
                <path d="M173.201879,11.9307832 C170.970485,11.9307832 170.701297,15.3035435 170.701297,16.7336188 C170.701297,18.1902421 170.943156,21.6135606 173.148197,21.6135606 C175.352262,21.6135606 175.620279,18.1902421 175.620279,16.7336188 C175.620279,15.3035435 175.37842,11.9307832 173.201879,11.9307832 M173.174355,22.8642421 C169.277468,22.8642421 167.557317,20.1821188 167.557317,16.7588003 C167.557317,13.362225 169.277468,10.6789305 173.174355,10.6789305 C177.044889,10.6789305 178.76543,13.362225 178.76543,16.7588003 C178.76543,20.1821188 177.044889,22.8642421 173.174355,22.8642421" id="Fill-5" fill="#3A3A3A"></path>
                <path d="M212.073712,12.1355342 C211.079921,12.1355342 210.192517,12.5185274 209.546972,13.1826164 L209.546972,17.3728973 C209.546972,18.8031678 209.681469,21.5871884 212.020226,21.5871884 C214.197743,21.5871884 214.439602,18.1640651 214.439602,16.7337945 C214.439602,14.0003322 213.767705,12.1355342 212.073712,12.1355342 M211.993873,22.8390411 C208.203178,22.8390411 206.375664,20.8725411 206.375664,17.3465445 L206.375664,5.49405822 C206.375664,5.13624658 206.644657,4.88013699 206.99388,4.88013699 L208.929733,4.88013699 C209.278955,4.88013699 209.546972,5.13624658 209.546972,5.49405822 L209.546972,11.8290616 C210.541544,10.8836815 211.643674,10.678911 212.691928,10.678911 C216.213435,10.678911 217.584558,13.7955616 217.584558,16.708613 C217.584558,20.1053836 215.864407,22.8390411 211.993873,22.8390411" id="Fill-7" fill="#3A3A3A"></path>
                <path d="M227.402866,12.8763195 C227.375538,13.0295558 227.214688,13.1314531 227.052668,13.1314531 C226.972829,13.1314531 226.891818,13.1062716 226.838137,13.0547373 C226.327089,12.5185079 225.708873,12.1606962 225.0645,12.1606962 C224.392408,12.1606962 223.693182,12.5700421 222.993955,13.5657853 L222.993955,22.2805387 C222.993955,22.6131688 222.758147,22.8358983 222.40912,22.8358983 L220.473267,22.8358983 C220.150397,22.8358983 219.822647,22.6131688 219.822647,22.2805387 L219.822647,11.2949599 C219.822647,10.9633058 220.118188,10.7085627 220.440863,10.7085627 L222.376716,10.7085627 C222.940274,10.7085627 222.993955,11.1417236 222.993955,11.6277853 L222.993955,12.1606962 C223.774192,11.1647579 224.885301,10.7005592 226.175414,10.7005592 C226.685291,10.7005592 227.975599,10.8537955 227.975599,11.2367887 C227.975599,11.261775 227.975599,11.2881277 227.949247,11.3384908 L227.402866,12.8763195 Z" id="Fill-9" fill="#3A3A3A"></path>
                <path d="M52.6647986,19.9336418 C52.021987,20.6715185 51.0504493,21.3330699 50.1130726,21.3330699 C47.9433637,21.3330699 47.789737,18.1272103 47.789737,16.7024055 C47.789737,15.2776007 48.031011,11.9190904 50.227463,11.9190904 C52.5308877,11.9190904 52.6647986,14.6669979 52.6647986,16.0918027 L52.6647986,19.9336418 Z M59.7849185,14.4272856 C59.5364219,18.4354397 57.8457473,21.3559089 56.4330452,21.3559089 C55.8271274,21.3559089 55.8251753,21.0601726 55.8251753,19.7046658 L55.8251753,17.0379637 C55.8431342,15.1944432 55.8003842,11.7439911 55.8003842,11.7439911 C55.7793021,11.1907788 55.897011,10.6791452 55.2694253,10.6769979 L53.1311445,10.6697753 C52.8223295,10.6687993 52.6729973,10.869861 52.6202918,11.1037171 C52.6193158,11.1087925 52.6140452,11.1119158 52.6091651,11.1099637 C51.9351205,10.8292582 51.1552747,10.6633336 50.2542062,10.6727034 C46.3705932,10.7129158 44.6562986,13.3438952 44.6562986,16.7277822 C44.6562986,19.5008712 45.995213,22.8086281 49.3701205,22.8086281 C50.6781925,22.8086281 51.9331685,22.1010082 52.949213,21.0129329 C52.9537027,21.0080527 52.9609253,21.0103952 52.963463,21.016837 C53.6414116,22.6060048 54.701963,22.8422034 55.870463,22.8404466 C59.9974973,22.8338096 61.3701822,16.1683233 61.3701822,16.1683233 C61.3701822,16.1683233 59.7855041,14.4173301 59.7849185,14.4272856 Z" id="Fill-11" fill="#3A3A3A"></path>
                <path d="M62.7117709,14.161162 C62.7133325,14.1609668 62.7191887,14.1625284 62.7203599,14.162138 C62.0269901,13.5897955 62.0279661,12.2120353 62.1037058,11.3679668 C62.1372812,10.9939531 61.8452538,10.671864 61.4698736,10.6736209 C60.9863497,10.6759634 60.3640346,10.6783058 59.9380962,10.6771346 C59.6257675,10.676549 59.347014,10.8821003 59.268151,11.1844736 C59.0499113,12.0215147 59.0651373,13.0399017 59.1194045,13.4096209 C59.3038736,14.668501 59.9693291,15.7023092 61.290675,16.5887373 C61.9811168,17.0531312 64.488336,18.4601723 64.6800277,19.7694154 C64.8496613,20.9273743 63.9847058,21.6777442 63.1033531,21.7489942 C62.4375072,21.8026757 61.8251476,21.1922682 61.5424901,20.7557887 C61.4148257,20.5588264 61.1489558,20.5088538 60.9668291,20.6562339 C60.9473086,20.6718503 60.9279832,20.687662 60.9090483,20.7034736 C60.6874901,20.8865764 60.6140928,21.1981243 60.7427332,21.4550147 C61.0154353,21.9992476 61.6892846,22.8316038 63.2608839,22.8316038 C65.2430003,22.8316038 67.2483462,21.0388366 66.8905346,18.5972065 C66.6385243,16.8760798 64.5105894,15.4305832 62.7117709,14.161162" id="Fill-13" fill="#3A3A3A"></path>
                <path d="M136.747646,11.9403288 C134.514105,11.9403288 134.244526,15.3150411 134.244526,16.7464829 C134.244526,18.2034966 134.486776,21.6291575 136.693769,21.6291575 C138.900567,21.6291575 139.16956,18.2034966 139.16956,16.7464829 C139.16956,15.3150411 138.92731,11.9403288 136.747646,11.9403288 M136.720317,22.8819863 C132.818355,22.8819863 131.096057,20.1977158 131.096057,16.7720548 C131.096057,13.372161 132.818355,10.6878904 136.720317,10.6878904 C140.596317,10.6878904 142.318615,13.372161 142.318615,16.7720548 C142.318615,20.1977158 140.596317,22.8819863 136.720317,22.8819863" id="Fill-15" fill="#3A3A3A"></path>
                <path d="M146.193385,15.2915969 C145.799656,15.0118675 145.40456,14.7342853 144.989163,14.4768092 L144.482214,14.6837271 C144.105467,15.3673366 143.090399,16.5046038 141.302122,16.9672408 C140.102974,17.2776175 139.983899,18.0051483 140.038947,18.0078812 C143.764639,18.1999634 145.565019,16.2104291 146.193385,15.2915969" id="Fill-17" fill="#3A3A3A"></path>
                <path d="M147.591466,14.204439 C147.591466,14.204439 147.598494,14.2069767 147.59986,14.2067815 C147.149912,13.6933911 147.178216,12.4337301 147.30998,11.4906925 C147.368932,11.0676822 147.033374,10.6923021 146.606069,10.6923021 L145.212302,10.6923021 C144.76899,10.6923021 144.384826,11.0058021 144.302059,11.4413055 C144.188449,12.0407815 144.165415,12.643576 144.161706,12.8842644 C144.1416,14.1581753 144.633518,15.2868534 145.796942,16.375124 C146.404617,16.9453192 148.656508,18.7388671 148.635816,20.0637267 C148.617271,21.23535 147.508895,21.8162815 146.626761,21.7452267 C145.84184,21.6819801 145.06824,21.3450555 144.715114,20.4434014 C144.630785,20.2280897 144.390292,20.1191651 144.172247,20.1956856 C143.877877,20.2995349 143.695165,20.6077644 143.768758,20.9111137 C144.014326,21.9232541 144.902316,22.5631377 146.452638,22.8151479 C148.411525,23.1337233 150.970083,21.7311719 151.008929,19.2600658 C151.036258,17.5188329 149.165408,15.7479288 147.591466,14.204439" id="Fill-19" fill="#3A3A3A"></path>
                <path d="M121.127772,19.7630322 C121.127772,21.2715801 121.961885,21.3287753 123.09232,21.3287753 C123.980505,21.3287753 125.029734,21.0217171 125.864042,20.7152445 C126.295056,20.7406212 126.483234,21.3479055 126.483234,21.6040151 C126.483234,22.4473027 123.307241,22.8820253 121.907813,22.8820253 C118.301392,22.8820253 117.951779,21.194474 117.951779,18.4336829 L117.951779,14.3179705 C117.951779,12.758474 117.440536,12.1958918 116.740529,12.1958918 C115.987231,12.1958918 114.991488,12.8096178 114.372296,13.5765801 L114.372296,22.2540493 C114.372296,22.5864842 114.07656,22.8420082 113.75369,22.8420082 L111.81569,22.8420082 C111.492625,22.8420082 111.196888,22.5864842 111.196888,22.2540493 L111.196888,11.2645664 C111.196888,10.9321315 111.492625,10.6764123 111.81569,10.6764123 L113.75369,10.6764123 C114.07656,10.6764123 114.372296,10.9321315 114.372296,11.2645664 L114.372296,12.1958918 C115.395368,11.1991726 116.336844,10.6879295 117.790344,10.6879295 C120.912265,10.6879295 121.127772,12.758474 121.127772,15.1874158 L121.127772,19.7630322 Z" id="Fill-21" fill="#3A3A3A"></path>
                <path d="M128.184333,12.1850969 C127.943449,14.9074325 127.863025,16.8922818 127.863025,19.691138 C127.863025,21.1920729 128.719782,21.3255935 129.818203,21.3255935 C130.675155,21.3255935 131.719699,21.0202921 132.550103,20.7147955 C132.978579,20.7401723 133.139234,21.2683983 133.139234,21.5229462 C133.139234,22.362525 130.032343,22.7949051 128.639357,22.7949051 C125.398751,22.7949051 124.782487,21.5229462 124.782487,17.7064839 C124.782487,15.899662 124.969884,14.0424771 125.077442,12.1850969 L123.898597,12.1850969 C123.604227,12.0584086 123.460751,11.6984497 123.460751,11.3935387 C123.460751,11.0882373 123.630775,10.782936 123.898597,10.655662 L125.264645,10.655662 L126.282251,7.88550103 C126.389809,7.55443253 126.603754,7.27470308 126.925258,7.27470308 L127.996545,7.27470308 C128.318049,7.27470308 128.612809,7.45312089 128.612809,7.75783664 C128.505836,8.87753527 128.398473,9.66343253 128.291305,10.655662 L130.568182,10.655662 C130.835809,10.782936 131.067518,11.0882373 131.067518,11.3935387 C131.067518,11.6984497 130.88949,12.0584086 130.568182,12.1850969 L128.184333,12.1850969 Z" id="Fill-23" fill="#3A3A3A"></path>
                <path d="M202.880178,22.8561997 C202.063243,22.8561997 201.325562,22.1710284 201.325562,21.3542887 C201.325562,20.5373538 202.063243,19.8521825 202.880178,19.8521825 C203.723466,19.8521825 204.461538,20.5373538 204.461538,21.3542887 C204.461538,22.1710284 203.723466,22.8561997 202.880178,22.8561997" id="Fill-25" fill="#3A3A3A"></path>
                <path d="M75.7789233,19.9931209 C75.1327932,20.7345113 74.1372452,21.399186 73.1951836,21.399186 C71.015324,21.399186 70.880437,18.1782955 70.880437,16.7464634 C70.880437,15.3150216 71.122687,11.9403092 73.3296801,11.9403092 C75.6444267,11.9403092 75.7789233,14.7014908 75.7789233,16.1331277 L75.7789233,19.9931209 Z M83.691187,20.6923469 C82.8566836,20.9988195 81.8072589,21.3812271 80.919074,21.3812271 C79.8157726,21.3812271 78.954526,21.2715216 78.954526,19.7629736 L78.954526,17.0837784 C78.9722897,15.2312784 78.9295397,11.7644291 78.9295397,11.7644291 C78.9080671,11.2084839 79.0263616,10.7327682 78.3956527,10.7306209 L76.2472212,10.7233983 C75.93255,10.7224223 75.7830226,10.8908846 75.732074,11.1311825 C75.0527589,10.8469634 74.2660808,10.678501 73.3568137,10.6878709 C69.4546562,10.7284736 67.7319678,13.3721414 67.7319678,16.7720353 C67.7319678,19.5583983 69.077324,22.8819668 72.4684336,22.8819668 C73.7872418,22.8819668 75.0519781,22.1661483 76.0748548,21.066751 C76.4514062,22.4218675 78.0394027,22.8819668 79.7349575,22.8819668 C81.4033788,22.8819668 82.9374986,22.5497271 84.175687,21.936001 C84.2565021,21.8339086 84.3101836,21.7316209 84.3101836,21.6039565 C84.3101836,21.3226654 84.1216151,20.7177236 83.691187,20.6923469 Z" id="Fill-27" fill="#3A3A3A"></path>
                <path d="M98.3928339,15.1873377 L98.3928339,19.7629541 C98.3928339,21.2715021 99.2277277,21.4026801 100.357382,21.3696904 C101.583077,21.3337726 102.224717,20.9775226 102.961033,20.6923274 C103.391461,20.7177041 103.748491,21.3480226 103.748491,21.603937 C103.748491,22.4472247 100.572693,22.8819473 99.1732654,22.8819473 C95.5668442,22.8819473 95.2172312,21.1943959 95.2172312,18.4338 L95.2172312,14.3180877 C95.2172312,12.7839678 95.0017243,12.1960089 94.1674161,12.1960089 C93.494738,12.1960089 92.7143065,12.7839678 92.0685668,13.5765021 L92.0685668,22.2539712 C92.0685668,22.5864062 91.7724401,22.8421253 91.4224366,22.8421253 L89.5385086,22.8421253 C89.1888955,22.8421253 88.8927688,22.5864062 88.8927688,22.2539712 L88.8927688,14.0112247 C88.8927688,12.6818753 88.4890839,12.1960089 87.8968305,12.1960089 C87.0896558,12.1960089 86.389649,12.8095397 85.7706524,13.5765021 L85.7706524,22.2539712 C85.7706524,22.5864062 85.4747209,22.8421253 85.1249127,22.8421253 L83.2140462,22.8421253 C82.864238,22.8421253 82.5681113,22.5864062 82.5681113,22.2539712 L82.5509332,11.2644884 C82.5509332,10.9320534 82.9075736,10.6765295 83.2571866,10.6765295 L85.1682483,10.6765295 C85.5178613,10.6765295 85.813988,10.9320534 85.813988,11.2644884 L85.7706524,12.1960089 C86.5510839,11.352526 87.4931455,10.6878514 88.9464503,10.6878514 C90.2383202,10.6878514 91.5030565,11.0970021 91.8799983,12.4517281 C92.7410497,11.4292418 93.736988,10.6878514 95.2439743,10.6878514 C98.231399,10.6878514 98.3928339,12.5028719 98.3928339,15.1873377" id="Fill-29" fill="#3A3A3A"></path>
                <path d="M104.415021,19.0601753 C106.15762,17.3177712 106.977678,15.2884151 106.977678,13.8105144 C106.977678,12.8676719 106.578092,12.0542507 105.514418,12.0542507 C104.683038,12.0542507 103.58364,13.6080863 103.58364,15.5954733 C103.58364,16.7415247 103.878401,17.9902541 104.415021,19.0601753 M100.821092,16.5123534 C100.821092,13.0987952 102.993339,10.6784425 105.326825,10.6784425 C107.927743,10.6784425 108.922315,12.6224938 108.922315,13.7129116 C108.922315,15.9288842 108.354072,17.5961342 105.246401,20.2579562 C106.051233,21.2513568 107.890654,21.3555966 108.910017,21.3555966 C110.009414,21.3555966 111.109397,20.9733842 112.074493,20.5404185 C112.450068,20.5404185 112.66499,20.7951616 112.66499,21.1008534 C112.66499,21.6874459 109.424188,22.8305692 107.15063,22.8305692 C105.783021,22.8305692 104.387887,22.5248774 103.28849,21.7606479 C101.652473,20.6142062 100.821092,18.576261 100.821092,16.5123534" id="Fill-31" fill="#3A3A3A"></path>
                <path d="M196.859299,15.1947555 L196.859299,19.7877452 C196.859299,21.3019541 197.696731,21.6867041 198.831265,21.6867041 C199.350902,21.6867041 199.701882,22.8593034 197.642659,22.8593034 C194.022964,22.8593034 193.671789,21.2248479 193.671789,18.453711 L193.671789,14.322187 C193.671789,12.7827966 193.455501,12.1928856 192.618265,12.1928856 C191.943049,12.1928856 191.15969,12.7827966 190.511217,13.5780637 L190.511217,22.2729062 C190.511217,22.6067075 190.21431,22.8634027 189.86294,22.8634027 L187.972179,22.8634027 C187.621005,22.8634027 187.323707,22.6067075 187.323707,22.2729062 L187.323707,14.0143479 C187.323707,12.6803137 186.918655,12.1928856 186.324255,12.1928856 C185.513957,12.1928856 184.811608,12.8085637 184.190464,13.5780637 L184.190464,22.2729062 C184.190464,22.6067075 183.893166,22.8634027 183.541991,22.8634027 L181.624097,22.8634027 C181.272923,22.8634027 180.97582,22.6067075 180.97582,22.2729062 L180.97582,11.3013822 C180.97582,10.9683616 181.272923,10.7114712 181.624097,10.7114712 L183.541991,10.7114712 C183.893166,10.7114712 184.190464,10.9683616 184.190464,11.3013822 L184.190464,12.1928856 C184.973628,11.3456938 185.919203,10.6786767 187.377779,10.6786767 C188.674334,10.6786767 189.94395,11.089389 190.322258,12.4493856 C191.186628,11.4229952 192.18608,10.6786767 193.698923,10.6786767 C196.697084,10.6786767 196.859299,12.5007247 196.859299,15.1947555" id="Fill-33" fill="#3A3A3A"></path>
                <path d="M154.83275,22.8222729 C154.01562,22.8222729 153.277939,22.1371017 153.277939,21.3201668 C153.277939,20.5032318 154.01562,19.8180606 154.83275,19.8180606 C155.675843,19.8180606 156.41411,20.5032318 156.41411,21.3201668 C156.41411,22.1371017 155.675843,22.8222729 154.83275,22.8222729" id="Fill-35" fill="#3A3A3A"></path>
                <g id="Group-39">
                    <mask id="mask-2" fill="white">
                        <use xlink:href="#path-1"></use>
                    </mask>
                    <g id="Clip-38"></g>
                    <path d="M25.6349301,4.56273288 C25.6349301,9.54593836 20.2095842,19.1400925 17.3086356,22.8759349 C16.110074,20.899089 13.7543342,18.9265377 11.2642932,16.8415479 C7.28268699,13.5074384 3.16580342,10.0603048 2.87397123,6.01291438 C2.76973151,4.56839384 3.08986849,3.43561644 3.82481712,2.64581507 C4.52423836,1.89407877 5.45302603,1.62645205 6.08920068,1.62645205 C8.08439589,1.62645205 10.2258,5.55125342 11.9467315,8.70518836 C13.3898856,11.3504178 14.3132075,12.9717945 15.0725568,12.9717945 C15.4083103,12.9717945 15.8137521,12.612226 15.8137521,12.1655959 C15.8137521,11.0517534 20.0036425,2.13847603 24.0551322,2.13847603 C24.2167623,2.13847603 25.6349301,2.20660274 25.6349301,4.56273288 M23.2895363,0.521393836 C20.4900945,0.521393836 17.030663,3.24919521 14.9827623,7.04359932 C13.1302623,3.07351027 9.31653288,0 6.19734452,0 C2.17201233,0 -3.90410959e-05,3.18223973 -3.90410959e-05,6.17630137 C-3.90410959e-05,13.6243664 9.68996096,19.6689041 14.8957007,22.9161473 C15.9865089,23.5966336 16.8479507,24.133839 17.3915979,24.5402568 L17.4659712,24.5958904 L17.5452247,24.5468938 C24.3219781,20.3372877 28.0701185,10.6650514 28.0701185,5.58873288 C28.0701185,2.41566781 26.2828171,0.521393836 23.2895363,0.521393836" id="Fill-37" fill="#F76C6F" mask="url(#mask-2)"></path>
                </g>
            </g>
        </g>
    </g>
</svg>